# xmcd
#
# Track frame offsets:
#	150
#	18185
#	31485
#	43145
#	53442
#	69882
#	78317
#	91545
#	104112
#	120025
#	133410
#	144915
#	154710
#	167785
#	176010
#	190160
#
# Disc length: 2697
#
# Revision: 1
# Processed by: cddbd v1.5.1PL0 Copyright (c) Steve Scherf et al.
# Submitted via: WaveLab 4.01
# Normalized: r0:TRMNUM
#
DISCID=c50a8710
DTITLE=Mikko Alatalo - Joulun laulut
DYEAR=1990
DGENRE=
TTITLE0=Harmaa joulu
TTITLE1=Me ollaan hengiss‰, hyv‰‰ joulua
TTITLE2=Joululetkis
TTITLE3=Uusperhe korvatunturin sai sekaisin
TTITLE4=Joulupukin syntym‰p‰iv‰t
TTITLE5=K‰nkk‰r‰nkk‰ jouluaamuna
TTITLE6=Kukaan ei rakasta Jeesusta en‰‰
TTITLE7=Hyasinttien aika
TTITLE8=Joulun kellot
TTITLE9=Jou-lu-na nauraa saa
TTITLE10=Joulupukki on muuttanut mielens‰
TTITLE11=Hakkeri-Pekan joulu
TTITLE12=Hassu Joulupukki
TTITLE13=Joulutonttujen Tapaninp‰iv‰tanssit
TTITLE14=Musta Jeesus
TTITLE15=Joulurauhaa
EXTD=
EXTT0=
EXTT1=
EXTT2=
EXTT3=
EXTT4=
EXTT5=
EXTT6=
EXTT7=
EXTT8=
EXTT9=
EXTT10=
EXTT11=
EXTT12=
EXTT13=
EXTT14=
EXTT15=
PLAYORDER=
